<svg width="52" height="12" viewBox="0 0 52 12" fill="none" xmlns="http://www.w3.org/2000/svg">
<path d="M9.485 0.499999V11H8.39V6.155H1.82V11H0.71V0.499999H1.82V5.18H8.39V0.499999H9.485ZM15.9121 11.075C15.1521 11.075 14.4671 10.905 13.8571 10.565C13.2471 10.215 12.7671 9.735 12.4171 9.125C12.0671 8.515 11.8921 7.825 11.8921 7.055C11.8921 6.285 12.0671 5.595 12.4171 4.985C12.7671 4.375 13.2471 3.9 13.8571 3.56C14.4671 3.22 15.1521 3.05 15.9121 3.05C16.6721 3.05 17.3571 3.22 17.9671 3.56C18.5771 3.9 19.0521 4.375 19.3921 4.985C19.7421 5.595 19.9171 6.285 19.9171 7.055C19.9171 7.825 19.7421 8.515 19.3921 9.125C19.0521 9.735 18.5771 10.215 17.9671 10.565C17.3571 10.905 16.6721 11.075 15.9121 11.075ZM15.9121 10.13C16.4721 10.13 16.9721 10.005 17.4121 9.755C17.8621 9.495 18.2121 9.13 18.4621 8.66C18.7121 8.19 18.8371 7.655 18.8371 7.055C18.8371 6.455 18.7121 5.92 18.4621 5.45C18.2121 4.98 17.8621 4.62 17.4121 4.37C16.9721 4.11 16.4721 3.98 15.9121 3.98C15.3521 3.98 14.8471 4.11 14.3971 4.37C13.9571 4.62 13.6071 4.98 13.3471 5.45C13.0971 5.92 12.9721 6.455 12.9721 7.055C12.9721 7.655 13.0971 8.19 13.3471 8.66C13.6071 9.13 13.9571 9.495 14.3971 9.755C14.8471 10.005 15.3521 10.13 15.9121 10.13ZM34.2564 3.11V7.475C34.2564 8.645 33.9764 9.54 33.4164 10.16C32.8564 10.77 32.0314 11.075 30.9414 11.075C30.2514 11.075 29.6714 10.945 29.2014 10.685C28.7414 10.415 28.3864 9.99 28.1364 9.41C27.8864 9.98 27.5314 10.4 27.0714 10.67C26.6114 10.94 26.0314 11.075 25.3314 11.075C24.2414 11.075 23.4164 10.77 22.8564 10.16C22.2964 9.54 22.0164 8.645 22.0164 7.475V3.11H23.0814V7.385C23.0814 8.315 23.2614 9.005 23.6214 9.455C23.9814 9.895 24.5514 10.115 25.3314 10.115C26.1014 10.115 26.6714 9.89 27.0414 9.44C27.4214 8.99 27.6114 8.295 27.6114 7.355V3.11H28.6764V7.355C28.6764 8.295 28.8614 8.99 29.2314 9.44C29.6014 9.89 30.1764 10.115 30.9564 10.115C31.7164 10.115 32.2764 9.895 32.6364 9.455C33.0064 9.005 33.1914 8.315 33.1914 7.385V3.11H34.2564ZM43.4979 10.04V11H36.1329V10.235L40.4979 5.96C41.0479 5.42 41.4179 4.955 41.6079 4.565C41.8079 4.165 41.9079 3.765 41.9079 3.365C41.9079 2.745 41.6929 2.265 41.2629 1.925C40.8429 1.575 40.2379 1.4 39.4479 1.4C38.2179 1.4 37.2629 1.79 36.5829 2.57L35.8179 1.91C36.2279 1.43 36.7479 1.06 37.3779 0.8C38.0179 0.54 38.7379 0.41 39.5379 0.41C40.6079 0.41 41.4529 0.665 42.0729 1.175C42.7029 1.675 43.0179 2.365 43.0179 3.245C43.0179 3.785 42.8979 4.305 42.6579 4.805C42.4179 5.305 41.9629 5.88 41.2929 6.53L37.7229 10.04H43.4979Z" fill="#C8C2FF"/>
<path d="M47.5982 7.85C47.5982 7.44 47.6632 7.08 47.7932 6.77C47.9332 6.46 48.1032 6.195 48.3032 5.975C48.5032 5.755 48.7632 5.505 49.0832 5.225C49.5132 4.845 49.8282 4.515 50.0282 4.235C50.2382 3.945 50.3432 3.595 50.3432 3.185C50.3432 2.635 50.1282 2.195 49.6982 1.865C49.2682 1.525 48.6782 1.355 47.9282 1.355C46.6882 1.355 45.7332 1.76 45.0632 2.57L44.2682 1.97C45.1182 0.929999 46.3632 0.41 48.0032 0.41C49.0532 0.41 49.8882 0.645 50.5082 1.115C51.1382 1.585 51.4532 2.22 51.4532 3.02C51.4532 3.43 51.3832 3.795 51.2432 4.115C51.1132 4.425 50.9482 4.69 50.7482 4.91C50.5582 5.13 50.3032 5.385 49.9832 5.675C49.5532 6.065 49.2332 6.415 49.0232 6.725C48.8132 7.025 48.7082 7.4 48.7082 7.85H47.5982ZM48.1532 11.075C47.9332 11.075 47.7482 11 47.5982 10.85C47.4482 10.69 47.3732 10.505 47.3732 10.295C47.3732 10.075 47.4482 9.895 47.5982 9.755C47.7482 9.605 47.9332 9.53 48.1532 9.53C48.3832 9.53 48.5732 9.605 48.7232 9.755C48.8732 9.895 48.9482 10.075 48.9482 10.295C48.9482 10.505 48.8682 10.69 48.7082 10.85C48.5582 11 48.3732 11.075 48.1532 11.075Z" fill="#944AFF"/>
</svg>
